<svg xmlns="http://www.w3.org/2000/svg" version="1.1" xmlns:xlink="http://www.w3.org/1999/xlink" xmlns:svgjs="http://svgjs.dev/svgjs" width="1500" height="935" viewBox="0 0 1500 935"><g transform="matrix(1,0,0,1,-0.9090909090908781,0.3785425101214628)"><svg viewBox="0 0 396 247" data-background-color="#ffffff" preserveAspectRatio="xMidYMid meet" height="935" width="1500" xmlns="http://www.w3.org/2000/svg" xmlns:xlink="http://www.w3.org/1999/xlink"><g id="tight-bounds" transform="matrix(1,0,0,1,0.2400000000000091,-0.09999999999999432)"><svg viewBox="0 0 395.52 247.2" height="247.2" width="395.52"><g><svg></svg></g><g><svg viewBox="0 0 395.52 247.2" height="247.2" width="395.52"><g transform="matrix(1,0,0,1,75.54432000000001,99.58986041555673)"><svg viewBox="0 0 244.43135999999996 48.02027916888652" height="48.02027916888652" width="244.43135999999996"><g><svg viewBox="0 0 244.43135999999996 48.02027916888652" height="48.02027916888652" width="244.43135999999996"><g><svg viewBox="0 0 244.43135999999996 48.02027916888652" height="48.02027916888652" width="244.43135999999996"><g><svg viewBox="0 0 244.43135999999996 48.02027916888652" height="48.02027916888652" width="244.43135999999996"><g id="textblocktransform"><svg viewBox="0 0 244.43135999999996 48.02027916888652" height="48.02027916888652" width="244.43135999999996" id="textblock"><g><svg viewBox="0 0 244.43135999999996 48.02027916888652" height="48.02027916888652" width="244.43135999999996"><g transform="matrix(1,0,0,1,0,0)"><svg width="244.43135999999996" viewBox="0.45 -36.48 187.68 36.879999999999995" height="48.02027916888652" data-palette-color="#b19dd0"><path d="M10.78 0L0.45-25.33 4.1-25.33Q4.63-25.33 4.98-25.05 5.33-24.78 5.48-24.4L5.48-24.4 11.9-8.1Q12.25-7.2 12.45-6.3 12.65-5.4 12.83-4.53L12.83-4.53Q13.03-5.4 13.25-6.3 13.48-7.2 13.83-8.1L13.83-8.1 20.33-24.4Q20.48-24.8 20.81-25.06 21.15-25.33 21.65-25.33L21.65-25.33 25.13-25.33 14.8 0 10.78 0ZM38.85-25.73L38.85-25.73Q41.62-25.73 43.86-24.8 46.1-23.88 47.66-22.18 49.22-20.48 50.06-18.06 50.9-15.65 50.9-12.68L50.9-12.68Q50.9-9.68 50.06-7.28 49.22-4.88 47.66-3.18 46.1-1.48 43.86-0.56 41.62 0.35 38.85 0.35L38.85 0.35Q36.07 0.35 33.84-0.56 31.6-1.48 30.02-3.18 28.45-4.88 27.6-7.28 26.75-9.68 26.75-12.68L26.75-12.68Q26.75-15.65 27.6-18.06 28.45-20.48 30.02-22.18 31.6-23.88 33.84-24.8 36.07-25.73 38.85-25.73ZM38.85-3.13L38.85-3.13Q42.6-3.13 44.45-5.64 46.3-8.15 46.3-12.65L46.3-12.65Q46.3-17.18 44.45-19.7 42.6-22.23 38.85-22.23L38.85-22.23Q36.95-22.23 35.55-21.58 34.15-20.93 33.21-19.7 32.27-18.48 31.81-16.69 31.35-14.9 31.35-12.65L31.35-12.65Q31.35-10.4 31.81-8.63 32.27-6.85 33.21-5.64 34.15-4.42 35.55-3.78 36.95-3.13 38.85-3.13ZM56.9-25.33L61.35-25.33 61.35 0 56.9 0 56.9-25.33ZM62.35-33.27L62.35-33.27Q62.35-32.63 62.08-32.06 61.82-31.5 61.38-31.06 60.95-30.63 60.37-30.38 59.8-30.13 59.15-30.13L59.15-30.13Q58.5-30.13 57.93-30.38 57.37-30.63 56.93-31.06 56.5-31.5 56.25-32.06 56-32.63 56-33.27L56-33.27Q56-33.93 56.25-34.51 56.5-35.1 56.93-35.54 57.37-35.98 57.93-36.23 58.5-36.48 59.15-36.48L59.15-36.48Q59.8-36.48 60.37-36.23 60.95-35.98 61.38-35.54 61.82-35.1 62.08-34.51 62.35-33.93 62.35-33.27ZM87.64-22.43L86.47-20.83Q86.27-20.55 86.07-20.4 85.87-20.25 85.49-20.25L85.49-20.25Q85.12-20.25 84.68-20.56 84.24-20.88 83.57-21.25 82.89-21.63 81.93-21.94 80.97-22.25 79.57-22.25L79.57-22.25Q77.72-22.25 76.29-21.59 74.87-20.93 73.91-19.68 72.94-18.43 72.45-16.65 71.97-14.88 71.97-12.68L71.97-12.68Q71.97-10.38 72.49-8.59 73.02-6.8 73.97-5.59 74.92-4.38 76.28-3.74 77.64-3.1 79.34-3.1L79.34-3.1Q80.97-3.1 82.02-3.49 83.07-3.88 83.77-4.35 84.47-4.83 84.92-5.21 85.37-5.6 85.82-5.6L85.82-5.6Q86.39-5.6 86.67-5.18L86.67-5.18 87.92-3.55Q86.27-1.53 83.79-0.59 81.32 0.35 78.57 0.35L78.57 0.35Q76.19 0.35 74.16-0.53 72.12-1.4 70.62-3.06 69.12-4.73 68.26-7.15 67.39-9.58 67.39-12.68L67.39-12.68Q67.39-15.5 68.18-17.9 68.97-20.3 70.48-22.04 71.99-23.78 74.22-24.75 76.44-25.73 79.32-25.73L79.32-25.73Q81.97-25.73 84.02-24.86 86.07-24 87.64-22.43L87.64-22.43ZM102.57-25.73L102.57-25.73Q104.84-25.73 106.77-24.96 108.69-24.2 110.09-22.76 111.49-21.33 112.28-19.21 113.07-17.1 113.07-14.4L113.07-14.4Q113.07-13.35 112.84-13 112.62-12.65 111.99-12.65L111.99-12.65 95.14-12.65Q95.19-10.25 95.79-8.47 96.39-6.7 97.44-5.51 98.49-4.33 99.94-3.74 101.39-3.15 103.19-3.15L103.19-3.15Q104.87-3.15 106.08-3.54 107.29-3.93 108.17-4.38 109.04-4.83 109.63-5.21 110.22-5.6 110.64-5.6L110.64-5.6Q111.19-5.6 111.49-5.18L111.49-5.18 112.74-3.55Q111.92-2.55 110.77-1.81 109.62-1.07 108.3-0.6 106.99-0.13 105.59 0.11 104.19 0.35 102.82 0.35L102.82 0.35Q100.19 0.35 97.98-0.54 95.77-1.43 94.15-3.14 92.54-4.85 91.64-7.38 90.74-9.9 90.74-13.18L90.74-13.18Q90.74-15.83 91.55-18.13 92.37-20.43 93.89-22.11 95.42-23.8 97.62-24.76 99.82-25.73 102.57-25.73ZM102.67-22.45L102.67-22.45Q99.44-22.45 97.59-20.59 95.74-18.73 95.29-15.43L95.29-15.43 109.07-15.43Q109.07-16.98 108.64-18.26 108.22-19.55 107.39-20.49 106.57-21.43 105.38-21.94 104.19-22.45 102.67-22.45ZM128.99-25.73L128.99-25.73Q131.76-25.73 134-24.8 136.24-23.88 137.8-22.18 139.36-20.48 140.2-18.06 141.04-15.65 141.04-12.68L141.04-12.68Q141.04-9.68 140.2-7.28 139.36-4.88 137.8-3.18 136.24-1.48 134-0.56 131.76 0.35 128.99 0.35L128.99 0.35Q126.21 0.35 123.98-0.56 121.74-1.48 120.16-3.18 118.59-4.88 117.74-7.28 116.89-9.68 116.89-12.68L116.89-12.68Q116.89-15.65 117.74-18.06 118.59-20.48 120.16-22.18 121.74-23.88 123.98-24.8 126.21-25.73 128.99-25.73ZM128.99-3.13L128.99-3.13Q132.74-3.13 134.59-5.64 136.44-8.15 136.44-12.65L136.44-12.65Q136.44-17.18 134.59-19.7 132.74-22.23 128.99-22.23L128.99-22.23Q127.09-22.23 125.69-21.58 124.29-20.93 123.35-19.7 122.41-18.48 121.95-16.69 121.49-14.9 121.49-12.65L121.49-12.65Q121.49-10.4 121.95-8.63 122.41-6.85 123.35-5.64 124.29-4.42 125.69-3.78 127.09-3.13 128.99-3.13ZM145.94-25.33L150.39-25.33 150.39-9.18Q150.39-6.3 151.71-4.73 153.04-3.15 155.71-3.15L155.71-3.15Q157.66-3.15 159.39-4.08 161.11-5 162.56-6.65L162.56-6.65 162.56-25.33 167.01-25.33 167.01 0 164.36 0Q163.41 0 163.16-0.93L163.16-0.93 162.81-3.65Q161.16-1.83 159.11-0.71 157.06 0.4 154.41 0.4L154.41 0.4Q152.34 0.4 150.75-0.29 149.16-0.98 148.09-2.23 147.01-3.48 146.47-5.25 145.94-7.03 145.94-9.18L145.94-9.18 145.94-25.33ZM182.01 0.4L182.01 0.4Q179.01 0.4 177.4-1.28 175.78-2.95 175.78-6.1L175.78-6.1 175.78-21.6 172.73-21.6Q172.33-21.6 172.06-21.84 171.78-22.08 171.78-22.58L171.78-22.58 171.78-24.35 175.93-24.88 176.96-32.7Q177.01-33.08 177.28-33.31 177.56-33.55 177.98-33.55L177.98-33.55 180.23-33.55 180.23-24.83 187.48-24.83 187.48-21.6 180.23-21.6 180.23-6.4Q180.23-4.8 181.01-4.03 181.78-3.25 183.01-3.25L183.01-3.25Q183.71-3.25 184.22-3.44 184.73-3.63 185.11-3.85 185.48-4.08 185.75-4.26 186.01-4.45 186.21-4.45L186.21-4.45Q186.56-4.45 186.83-4.03L186.83-4.03 188.13-1.9Q186.98-0.83 185.36-0.21 183.73 0.4 182.01 0.4Z" opacity="1" transform="matrix(1,0,0,1,0,0)" fill="#b19dd0" class="wordmark-text-0" data-fill-palette-color="primary" id="text-0"></path></svg></g></svg></g></svg></g></svg></g></svg></g></svg></g></svg></g><g><path d="M0 123.6c0-68.262 55.338-123.6 123.6-123.6 58.032 0 106.722 39.993 120.014 93.922h-2.232c-13.242-52.72-60.954-91.756-117.782-91.757-67.067 0-121.435 54.368-121.435 121.435 0 67.067 54.368 121.435 121.435 121.435 56.828 0 104.54-39.036 117.782-91.757l2.232 0c-13.291 53.928-61.982 93.922-120.014 93.922-68.262 0-123.6-55.338-123.6-123.6z" fill="#b19dd0" stroke="transparent" data-fill-palette-color="tertiary"></path></g></svg></g><defs></defs></svg><rect width="395.52" height="247.2" fill="none" stroke="none" visibility="hidden"></rect></g></svg></g></svg>